<svg width="127" height="265" viewBox="0 0 127 265" fill="none" xmlns="http://www.w3.org/2000/svg">
<path d="M41.5484 0.147612C39.9721 -0.364399 38.2792 0.498374 37.7672 2.07467C37.2552 3.65096 38.118 5.34387 39.6943 5.85588L41.5484 0.147612ZM122.573 72.0532L119.648 72.7244L122.573 72.0532ZM1.06563 262.117C1.13087 263.773 2.52627 265.063 4.18236 264.998L31.1698 263.934C32.8258 263.869 34.1155 262.474 34.0502 260.818C33.985 259.162 32.5896 257.872 30.9335 257.937L6.94471 258.882L5.99968 234.894C5.93445 233.237 4.53903 231.948 2.88295 232.013C1.22688 232.078 -0.0627597 233.474 0.002485 235.13L1.06563 262.117ZM59.3124 11.8477C60.8954 12.3387 62.5767 11.4534 63.0676 9.87041C63.5586 8.28743 62.6733 6.60617 61.0903 6.11522L59.3124 11.8477ZM76.7898 11.6136C75.2556 10.9867 73.5036 11.7222 72.8767 13.2565C72.2498 14.7907 72.9853 16.5426 74.5196 17.1696L76.7898 11.6136ZM105.705 40.1929C106.687 41.5281 108.565 41.8146 109.9 40.8328C111.236 39.851 111.522 37.9726 110.54 36.6374L105.705 40.1929ZM118.994 51.3766C118.324 49.861 116.551 49.176 115.036 49.8467C113.52 50.5173 112.835 52.2896 113.506 53.8053L118.994 51.3766ZM118.151 98.2489C117.72 99.8493 118.668 101.496 120.268 101.927C121.869 102.357 123.515 101.409 123.946 99.8087L118.151 98.2489ZM116.111 120.748C116.811 119.245 116.159 117.461 114.657 116.761C113.154 116.062 111.369 116.713 110.67 118.216L116.111 120.748ZM82.6771 164.371C81.7107 165.718 82.0187 167.592 83.3651 168.559C84.7115 169.525 86.5865 169.217 87.5529 167.871L82.6771 164.371ZM74.3835 185.456C75.4011 184.148 75.1656 182.262 73.8574 181.244C72.5492 180.227 70.6638 180.462 69.6462 181.771L74.3835 185.456ZM34.8003 223.597C33.7057 224.842 33.8273 226.738 35.0718 227.832C36.3163 228.927 38.2125 228.805 39.3071 227.561L34.8003 223.597ZM24.7234 243.891C25.8357 242.663 25.7413 240.765 24.5126 239.653C23.2839 238.54 21.3862 238.635 20.2739 239.863L24.7234 243.891ZM39.6943 5.85588C46.1875 7.96502 52.9463 9.87329 59.3124 11.8477L61.0903 6.11522C54.4676 4.06124 48.0461 2.25818 41.5484 0.147612L39.6943 5.85588ZM74.5196 17.1696C86.4913 22.0615 97.2715 28.7239 105.705 40.1929L110.54 36.6374C101.241 23.9914 89.3954 16.7646 76.7898 11.6136L74.5196 17.1696ZM113.506 53.8053C115.922 59.2656 117.995 65.5207 119.648 72.7244L125.497 71.3821C123.77 63.8512 121.583 57.2271 118.994 51.3766L113.506 53.8053ZM119.648 72.7244C121.333 80.0691 120.734 88.65 118.151 98.2489L123.946 99.8087C126.685 89.6307 127.474 79.9979 125.497 71.3821L119.648 72.7244ZM110.67 118.216C103.893 132.78 94.1008 148.456 82.6771 164.371L87.5529 167.871C99.0942 151.792 109.117 135.779 116.111 120.748L110.67 118.216ZM69.6462 181.771C58.5364 196.052 46.576 210.208 34.8003 223.597L39.3071 227.561C51.1331 214.115 63.1766 199.862 74.3835 185.456L69.6462 181.771ZM20.2739 239.863C13.8794 246.927 7.68158 253.664 1.86037 259.962L6.26809 264.036C12.0951 257.731 18.3088 250.977 24.7234 243.891L20.2739 239.863Z" fill="#316E76"/>
</svg>
