<svg width="186" height="190" viewBox="0 0 186 190" fill="none" xmlns="http://www.w3.org/2000/svg">
<path d="M49.619 1.24979C50.5931 -0.0995543 52.4766 -0.403757 53.8259 0.570331C55.1753 1.54442 55.4795 3.42793 54.5054 4.77727L49.619 1.24979ZM4.72535 122.763L7.68917 122.219L4.72535 122.763ZM185.012 165.463C186.201 166.628 186.22 168.536 185.055 169.724L166.075 189.096C164.911 190.284 163.003 190.304 161.814 189.139C160.625 187.974 160.606 186.066 161.771 184.878L178.642 167.659L161.423 150.788C160.234 149.623 160.215 147.715 161.38 146.527C162.544 145.338 164.452 145.319 165.641 146.483L185.012 165.463ZM40.3389 23.9467C39.3506 25.2857 37.464 25.5699 36.125 24.5816C34.7861 23.5933 34.5018 21.7067 35.4901 20.3677L40.3389 23.9467ZM24.3799 35.9942C25.309 34.6135 27.1814 34.2473 28.5622 35.1764C29.9429 36.1055 30.309 37.9779 29.3799 39.3587L24.3799 35.9942ZM9.08549 81.0617C8.6599 82.6706 7.01064 83.6298 5.40178 83.2042C3.79292 82.7786 2.83369 81.1294 3.25928 79.5205L9.08549 81.0617ZM0.157554 98.887C0.252528 97.2255 1.67642 95.9556 3.33791 96.0506C4.9994 96.1455 6.26932 97.5694 6.17434 99.2309L0.157554 98.887ZM18.5033 139.709C19.7765 140.781 19.9398 142.682 18.8681 143.955C17.7964 145.228 15.8954 145.392 14.6223 144.32L18.5033 139.709ZM31.1328 154.251C29.6099 153.58 28.9195 151.802 29.5907 150.279C30.2619 148.756 32.0405 148.065 33.5634 148.737L31.1328 154.251ZM77.3534 160.008C79.0004 160.247 80.1423 161.775 79.9039 163.422C79.6655 165.069 78.137 166.211 76.49 165.973L77.3534 160.008ZM94.9809 168.152C93.324 167.996 92.107 166.527 92.2627 164.87C92.4184 163.213 93.8878 161.996 95.5447 162.152L94.9809 168.152ZM141.423 164.534C143.087 164.566 144.41 165.94 144.378 167.604C144.346 169.268 142.971 170.591 141.308 170.559L141.423 164.534ZM159.834 170.745C158.17 170.742 156.824 169.39 156.827 167.726C156.83 166.062 158.182 164.715 159.846 164.719L159.834 170.745ZM54.5054 4.77727C49.8485 11.2282 45.0051 17.6251 40.3389 23.9467L35.4901 20.3677C40.2207 13.9587 44.9815 7.67382 49.619 1.24979L54.5054 4.77727ZM29.3799 39.3587C20.4911 52.5685 13.0428 66.1019 9.08549 81.0617L3.25928 79.5205C7.46182 63.6336 15.3193 49.4592 24.3799 35.9942L29.3799 39.3587ZM6.17434 99.2309C5.76088 106.464 6.19815 114.094 7.68917 122.219L1.76153 123.307C0.186075 114.722 -0.283963 106.611 0.157554 98.887L6.17434 99.2309ZM7.68917 122.219C8.93794 129.025 12.6543 134.786 18.5033 139.709L14.6223 144.32C7.92397 138.681 3.31054 131.748 1.76153 123.307L7.68917 122.219ZM33.5634 148.737C45.4788 153.988 60.6136 157.585 77.3534 160.008L76.49 165.973C59.4994 163.513 43.7589 159.816 31.1328 154.251L33.5634 148.737ZM95.5447 162.152C110.581 163.565 126.234 164.244 141.423 164.534L141.308 170.559C126.028 170.267 110.215 169.584 94.9809 168.152L95.5447 162.152ZM159.846 164.719C167.862 164.735 175.597 164.677 182.872 164.602L182.934 170.629C175.648 170.703 167.886 170.761 159.834 170.745L159.846 164.719Z" fill="#316E76"/>
</svg>
