<svg width="335" height="335" viewBox="0 0 335 335" fill="none" xmlns="http://www.w3.org/2000/svg">
<g filter="url(#filter0_d_107_220)">
<path d="M184.378 119.808L285.778 119.614L286.148 312.87L184.748 313.064L184.378 119.808Z" fill="#2F6D75"/>
<path d="M184.378 51.0034C184.378 22.8349 207.213 0 235.382 0C263.55 0 286.385 22.8349 286.385 51.0034C286.385 79.1716 263.55 102.007 235.382 102.007C207.213 102.007 184.378 79.1716 184.378 51.0034Z" fill="#2F6D75"/>
<path d="M116.912 130.776L218.311 130.582L218.681 323.838L117.282 324.032L116.912 130.776Z" fill="#EF5757"/>
<path d="M116.912 61.9714C116.912 33.8029 139.747 10.968 167.915 10.968C196.083 10.968 218.918 33.8029 218.918 61.9714C218.918 90.1395 196.083 112.975 167.915 112.975C139.747 112.975 116.912 90.1395 116.912 61.9714Z" fill="#EF5757"/>
<path d="M49.4448 72.9394C49.4448 44.7709 72.2798 21.936 100.448 21.936C128.616 21.936 151.451 44.7709 151.451 72.9394C151.451 101.108 128.616 123.942 100.448 123.942C72.2798 123.942 49.4448 101.108 49.4448 72.9394Z" fill="#07393C"/>
<path d="M49.4448 141.744L150.844 141.55L151.214 334.807L49.8148 335L49.4448 141.744Z" fill="#07393C"/>
</g>
<defs>
<filter id="filter0_d_107_220" x="-4" y="0" width="343" height="343" filterUnits="userSpaceOnUse" color-interpolation-filters="sRGB">
<feFlood flood-opacity="0" result="BackgroundImageFix"/>
<feColorMatrix in="SourceAlpha" type="matrix" values="0 0 0 0 0 0 0 0 0 0 0 0 0 0 0 0 0 0 127 0" result="hardAlpha"/>
<feOffset dy="4"/>
<feGaussianBlur stdDeviation="2"/>
<feColorMatrix type="matrix" values="0 0 0 0 0.027451 0 0 0 0 0.223529 0 0 0 0 0.235294 0 0 0 0.4 0"/>
<feBlend mode="normal" in2="BackgroundImageFix" result="effect1_dropShadow_107_220"/>
<feBlend mode="normal" in="SourceGraphic" in2="effect1_dropShadow_107_220" result="shape"/>
</filter>
</defs>
</svg>
