<svg width="236" height="211" viewBox="0 0 236 211" fill="none" xmlns="http://www.w3.org/2000/svg">
<path d="M235.068 49.4255C236.27 50.5719 236.316 52.4761 235.169 53.6786C234.023 54.8811 232.119 54.9266 230.916 53.7802L235.068 49.4255ZM125.629 6.14546L126.334 9.06995L125.629 6.14546ZM17.0235 210.234C15.5534 211.008 13.7342 210.444 12.9602 208.974L0.346918 185.017C-0.427105 183.547 0.13719 181.728 1.6073 180.954C3.0774 180.18 4.89661 180.744 5.67063 182.214L16.8824 203.509L38.1772 192.297C39.6473 191.523 41.4666 192.087 42.2406 193.557C43.0146 195.028 42.4503 196.847 40.9802 197.621L17.0235 210.234ZM215.117 38.2144C213.93 37.0523 213.909 35.1477 215.071 33.9603C216.233 32.773 218.138 32.7525 219.325 33.9146L215.117 38.2144ZM206.109 21.7828C207.383 22.8496 207.551 24.7469 206.484 26.0206C205.417 27.2943 203.52 27.462 202.246 26.3952L206.109 21.7828ZM164.592 7.23921C162.959 6.93127 161.886 5.35813 162.193 3.72551C162.501 2.09288 164.075 1.01901 165.707 1.32695L164.592 7.23921ZM147.428 0.0017856C149.088 -0.0551472 150.48 1.24475 150.537 2.90518C150.594 4.56562 149.294 5.95782 147.634 6.01476L147.428 0.0017856ZM103.786 22.4459C102.576 23.5842 100.672 23.5257 99.5342 22.3155C98.396 21.1052 98.4544 19.2014 99.6646 18.0632L103.786 22.4459ZM84.6015 35.4768C85.5796 34.1338 87.4613 33.8381 88.8042 34.8162C90.1472 35.7944 90.4429 37.676 89.4648 39.019L84.6015 35.4768ZM62.2671 87.3848C61.5744 88.8949 59.7886 89.5576 58.2785 88.8649C56.7684 88.1722 56.1057 86.3865 56.7984 84.8763L62.2671 87.3848ZM47.8138 105.619C48.4446 104.082 50.202 103.348 51.739 103.978C53.276 104.609 54.0105 106.367 53.3797 107.904L47.8138 105.619ZM33.9487 160.417C33.4159 161.991 31.7083 162.834 30.1346 162.302C28.5609 161.769 27.7171 160.061 28.2499 158.488L33.9487 160.417ZM21.1961 179.878C21.7053 178.296 23.4001 177.427 24.9816 177.936C26.5631 178.446 27.4323 180.14 26.9231 181.722L21.1961 179.878ZM230.916 53.7802C225.567 48.6804 220.292 43.2791 215.117 38.2144L219.325 33.9146C224.662 39.1381 229.726 44.3333 235.068 49.4255L230.916 53.7802ZM202.246 26.3952C191.354 17.2725 179.504 10.0518 164.592 7.23921L165.707 1.32695C181.985 4.39713 194.759 12.276 206.109 21.7828L202.246 26.3952ZM147.634 6.01476C141.143 6.23733 134.08 7.20299 126.334 9.06995L124.925 3.22096C133.021 1.2694 140.488 0.239735 147.428 0.0017856L147.634 6.01476ZM126.334 9.06995C118.698 10.9106 111.173 15.4989 103.786 22.4459L99.6646 18.0632C107.533 10.6635 115.954 5.38315 124.925 3.22096L126.334 9.06995ZM89.4648 39.019C79.7738 52.3242 70.6895 69.0234 62.2671 87.3848L56.7984 84.8763C65.3094 66.322 74.5853 49.2286 84.6015 35.4768L89.4648 39.019ZM53.3797 107.904C46.3229 125.097 39.8365 143.025 33.9487 160.417L28.2499 158.488C34.1632 141.021 40.694 122.966 47.8138 105.619L53.3797 107.904ZM26.9231 181.722C23.9208 191.046 21.1102 200.033 18.4953 208.463L12.7488 206.681C15.3665 198.242 18.1843 189.232 21.1961 179.878L26.9231 181.722Z" fill="#316E76"/>
</svg>
